<?xml version="1.0" encoding="UTF-8" standalone="no"?>
<!-- Created with Inkscape (http://www.inkscape.org/) -->

<svg
   xmlns:dc="http://purl.org/dc/elements/1.1/"
   xmlns:cc="http://creativecommons.org/ns#"
   xmlns:rdf="http://www.w3.org/1999/02/22-rdf-syntax-ns#"
   xmlns:svg="http://www.w3.org/2000/svg"
   xmlns="http://www.w3.org/2000/svg"
   xmlns:sodipodi="http://sodipodi.sourceforge.net/DTD/sodipodi-0.dtd"
   xmlns:inkscape="http://www.inkscape.org/namespaces/inkscape"
   width="210mm"
   height="297mm"
   viewBox="0 0 210 297"
   version="1.1"
   id="svg8"
   inkscape:version="0.92.3 (2405546, 2018-03-11)"
   sodipodi:docname="UI_face.svg">
  <defs
     id="defs2" />
  <sodipodi:namedview
     id="base"
     pagecolor="#ffffff"
     bordercolor="#666666"
     borderopacity="1.0"
     inkscape:pageopacity="0.0"
     inkscape:pageshadow="2"
     inkscape:zoom="0.49497475"
     inkscape:cx="-83.013212"
     inkscape:cy="660.42717"
     inkscape:document-units="mm"
     inkscape:current-layer="layer1"
     showgrid="false"
     inkscape:window-width="1920"
     inkscape:window-height="1017"
     inkscape:window-x="-8"
     inkscape:window-y="-8"
     inkscape:window-maximized="1" />
  <metadata
     id="metadata5">
    <rdf:RDF>
      <cc:Work
         rdf:about="">
        <dc:format>image/svg+xml</dc:format>
        <dc:type
           rdf:resource="http://purl.org/dc/dcmitype/StillImage" />
        <dc:title />
      </cc:Work>
    </rdf:RDF>
  </metadata>
  <g
     inkscape:label="Layer 1"
     inkscape:groupmode="layer"
     id="layer1">
    <g
       id="g1644"
       transform="matrix(1.8596901,0,0,1.4100164,-326.94278,-2.5810912)"
       inkscape:export-xdpi="96"
       inkscape:export-ydpi="96">
      <g
         transform="scale(0.26458333)"
         id="use1642">
        <path
           style="fill:#89d9c0;stroke:none"
           inkscape:connector-curvature="0"
           id="path1032"
           d="m 855.1,29.95 q 6.1,6.1 6.3,14.7 v -1.5 q 0,-8.9 -6.3,-15.2 -6.3,-6.3 -15.2,-6.3 -8.9,0 -15.2,6.3 -6.3,6.3 -6.3,15.2 v 1.5 q 0.2,-8.6 6.3,-14.7 6.3,-6.3 15.2,-6.3 8.9,0 15.2,6.3 z" />
        <path
           style="fill:#6fc4a9;stroke:none"
           inkscape:connector-curvature="0"
           id="path1034"
           d="m 861.4,44.65 q -0.2,-8.6 -6.3,-14.7 -6.3,-6.3 -15.2,-6.3 -8.9,0 -15.2,6.3 -6.1,6.1 -6.3,14.7 V 83.8 q 0.15,5.3 6.3,9.05 6.3,3.8 15.2,3.8 8.9,0 15.2,-3.8 6.15,-3.75 6.3,-9.05 z" />
      </g>
    </g>
    <g
       id="g1648"
       transform="matrix(1.8596901,0,0,1.8596901,-326.94278,-5.156919)"
       inkscape:export-xdpi="96"
       inkscape:export-ydpi="96">
      <g
         transform="scale(0.26458333)"
         id="use1646">
        <path
           style="fill:#347e67;stroke:none"
           inkscape:connector-curvature="0"
           id="path1054"
           d="m 839.4,61.8 q -0.4,-0.2 -0.85,-0.1 -0.4,0.1 -0.55,0.5 -0.2,0.35 -0.1,0.75 0.4,1.45 1.9,2.55 2.1,1.65 5.1,1.65 2.95,0 5.05,-1.65 1.35,-1.1 1.95,-2.45 0.15,-0.4 0,-0.8 -0.25,-0.4 -0.6,-0.5 -0.4,-0.2 -0.8,0 -0.4,0.15 -0.5,0.55 -0.4,0.9 -1.3,1.65 -1.6,1.2 -3.8,1.2 -2.3,0 -3.85,-1.2 -0.9,-0.7 -1.2,-1.6 -0.1,-0.4 -0.45,-0.55 m -8.3,-7.2 q 0,2 1.4,3.4 1.5,1.5 3.6,1.5 2,0 3.45,-1.5 1.5,-1.4 1.5,-3.4 0,-2 -1.5,-3.5 -1.45,-1.45 -3.45,-1.45 -2.1,0 -3.6,1.45 -1.4,1.5 -1.4,3.5 m 19.1,-3.5 q -1.4,1.5 -1.4,3.5 0,2 1.4,3.4 1.5,1.5 3.6,1.5 2,0 3.45,-1.5 1.5,-1.4 1.5,-3.4 0,-2 -1.5,-3.5 -1.45,-1.45 -3.45,-1.45 -2.1,0 -3.6,1.45 z" />
      </g>
    </g>
    <g
       id="g1660"
       transform="matrix(1.8596901,0,0,1.8596901,-326.94278,-5.156919)"
       inkscape:export-xdpi="96"
       inkscape:export-ydpi="96">
      <g
         transform="scale(0.26458333)"
         id="use1658">
        <path
           style="fill:#ffffff;stroke:none"
           inkscape:connector-curvature="0"
           id="path1046"
           d="m 872.45,45.85 q 0.05,-0.85 0.05,-1.75 0,-0.9 -0.05,-1.8 -0.6,-12.35 -9.45,-21.2 -9.6,-9.55 -23.1,-9.55 -13.5,0 -23,9.55 -8.95,8.85 -9.55,21.2 -0.05,0.9 -0.05,1.8 0,0.9 0.05,1.75 0.15,2.9 0.75,5.65 1.95,8.85 8.8,15.7 9.5,9.5 23,9.5 13.5,0 23.1,-9.5 6.8,-6.85 8.75,-15.7 0.55,-2.75 0.7,-5.65 M 867.5,44.1 q 0,0.9 -0.05,1.75 -0.15,2.95 -0.85,5.65 -1.8,6.8 -7.15,12.15 -8.15,8.05 -19.55,8.05 -11.4,0 -19.45,-8.05 -5.35,-5.35 -7.2,-12.15 -0.75,-2.7 -0.9,-5.65 -0.05,-0.85 -0.05,-1.75 0,-0.9 0.05,-1.8 0.6,-10.25 8.1,-17.65 8.05,-8.1 19.45,-8.1 11.4,0 19.55,8.1 7.4,7.4 8,17.65 0.05,0.9 0.05,1.8 z" />
        <path
           style="fill:#ffffff;fill-opacity:0.2;stroke:none"
           inkscape:connector-curvature="0"
           id="path1048"
           d="m 867.45,45.85 q 0.05,-0.85 0.05,-1.75 0,-0.9 -0.05,-1.8 -0.6,-10.25 -8,-17.65 -8.15,-8.1 -19.55,-8.1 -11.4,0 -19.45,8.1 -7.5,7.4 -8.1,17.65 -0.05,0.9 -0.05,1.8 0,0.9 0.05,1.75 0.15,2.95 0.9,5.65 1.85,6.8 7.2,12.15 8.05,8.05 19.45,8.05 11.4,0 19.55,-8.05 5.35,-5.35 7.15,-12.15 0.7,-2.7 0.85,-5.65 m -2.5,-0.15 v 0.05 q -0.15,3 -0.95,5.75 -20.3,7.55 -48.15,0 -0.8,-2.75 -1,-5.8 -0.05,-0.8 -0.05,-1.6 0,-0.85 0.05,-1.65 0.55,-9.3 7.35,-16 l 0.05,-0.05 q 7.3,-7.35 17.65,-7.35 10.4,0 17.8,7.4 6.7,6.7 7.25,16 0.05,0.8 0.05,1.65 0,0.8 -0.05,1.6 z" />
        <path
           style="fill:#ffffff;fill-opacity:0.30196078;stroke:none"
           inkscape:connector-curvature="0"
           id="path1050"
           d="M 864.95,45.75 V 45.7 q 0.05,-0.8 0.05,-1.6 0,-0.85 -0.05,-1.65 -0.55,-9.3 -7.25,-16 -7.4,-7.4 -17.8,-7.4 -10.35,0 -17.65,7.35 l -0.05,0.05 q -6.8,6.7 -7.35,16 -0.05,0.8 -0.05,1.65 0,0.8 0.05,1.6 0.2,3.05 1,5.8 27.85,7.55 48.15,0 0.8,-2.75 0.95,-5.75 z" />
      </g>
    </g>
    <g
       id="g1904"
       transform="matrix(1.8596901,0,0,1.4218499,-326.94278,12.411019)"
       inkscape:export-xdpi="96"
       inkscape:export-ydpi="96">
      <g
         transform="scale(0.26458333)"
         id="use1902">
        <path
           style="fill:#a3c3eb;stroke:none"
           inkscape:connector-curvature="0"
           id="path1064"
           d="m 824.7,159.95 q 6.3,-6.3 15.2,-6.3 8.9,0 15.2,6.3 6.1,6.1 6.3,14.7 v -1.5 q 0,-8.9 -6.3,-15.2 -6.3,-6.3 -15.2,-6.3 -8.9,0 -15.2,6.3 -6.3,6.3 -6.3,15.2 v 1.5 q 0.2,-8.6 6.3,-14.7 z" />
        <path
           style="fill:#8db5e7;stroke:none"
           inkscape:connector-curvature="0"
           id="path1066"
           d="m 839.9,153.65 q -8.9,0 -15.2,6.3 -6.1,6.1 -6.3,14.7 v 39.15 q 0.15,5.3 6.3,9.05 6.3,3.8 15.2,3.8 8.9,0 15.2,-3.8 6.15,-3.75 6.3,-9.05 v -39.15 q -0.2,-8.6 -6.3,-14.7 -6.3,-6.3 -15.2,-6.3 z" />
      </g>
    </g>
    <g
       id="g1916"
       transform="matrix(1.8596901,0,0,1.8596901,-326.94278,-5.156919)"
       inkscape:export-xdpi="96"
       inkscape:export-ydpi="96">
      <g
         transform="scale(0.26458333)"
         id="use1914">
        <path
           style="fill:#4f719d;stroke:none"
           inkscape:connector-curvature="0"
           id="path1070"
           d="m 852.6,183.8 q -1.1,0 -1.85,0.75 -0.75,0.75 -0.75,1.75 0,1.1 0.75,1.75 0.75,0.8 1.85,0.8 0.95,0 1.7,-0.8 0.8,-0.65 0.8,-1.75 0,-1 -0.8,-1.75 -0.75,-0.75 -1.7,-0.75 m -11.8,12.25 q 0,0.45 0.25,0.75 0.35,0.35 0.8,0.35 h 6.25 q 0.45,0 0.75,-0.35 0.35,-0.3 0.35,-0.75 0,-0.4 -0.35,-0.75 -0.3,-0.3 -0.75,-0.3 h -6.25 q -0.45,0 -0.8,0.3 -0.25,0.35 -0.25,0.75 m -1.55,-11.5 q -0.65,-0.75 -1.75,-0.75 -1,0 -1.8,0.75 -0.7,0.75 -0.7,1.75 0,1.1 0.7,1.75 0.8,0.8 1.8,0.8 1.1,0 1.75,-0.8 0.8,-0.65 0.8,-1.75 0,-1 -0.8,-1.75 m 4,-4.25 q -0.7,0.7 -0.7,1.75 0,1.05 0.7,1.75 0.75,0.75 1.85,0.75 1,0 1.7,-0.75 0.75,-0.7 0.75,-1.75 0,-1.05 -0.75,-1.75 -0.7,-0.8 -1.7,-0.8 -1.1,0 -1.85,0.8 z" />
      </g>
    </g>
    <g
       id="g1920"
       transform="matrix(1.8596901,0,0,1.8596901,-326.94278,-5.156919)"
       inkscape:export-xdpi="96"
       inkscape:export-ydpi="96">
      <g
         transform="scale(0.26458333)"
         id="use1918">
        <path
           style="fill:#ffffff;stroke:none"
           inkscape:connector-curvature="0"
           id="path1084"
           d="m 871.75,181.5 q 0.55,-2.75 0.7,-5.65 0.05,-0.85 0.05,-1.75 0,-0.9 -0.05,-1.8 -0.6,-12.35 -9.45,-21.2 -9.6,-9.55 -23.1,-9.55 -13.5,0 -23,9.55 -8.95,8.85 -9.55,21.2 -0.05,0.9 -0.05,1.8 0,0.9 0.05,1.75 0.15,2.9 0.75,5.65 1.95,8.85 8.8,15.7 9.5,9.5 23,9.5 13.5,0 23.1,-9.5 6.8,-6.85 8.75,-15.7 m -59.4,-9.2 q 0.6,-10.25 8.1,-17.65 8.05,-8.1 19.45,-8.1 11.4,0 19.55,8.1 7.4,7.4 8,17.65 0.05,0.9 0.05,1.8 0,0.9 -0.05,1.75 -0.15,2.95 -0.85,5.65 -1.8,6.8 -7.15,12.15 -8.15,8.05 -19.55,8.05 -11.4,0 -19.45,-8.05 -5.35,-5.35 -7.2,-12.15 -0.75,-2.7 -0.9,-5.65 -0.05,-0.85 -0.05,-1.75 0,-0.9 0.05,-1.8 z" />
        <path
           style="fill:#ffffff;fill-opacity:0.2;stroke:none"
           inkscape:connector-curvature="0"
           id="path1087"
           d="m 820.45,154.65 q -7.5,7.4 -8.1,17.65 -0.05,0.9 -0.05,1.8 0,0.9 0.05,1.75 0.15,2.95 0.9,5.65 1.85,6.8 7.2,12.15 8.05,8.05 19.45,8.05 11.4,0 19.55,-8.05 5.35,-5.35 7.15,-12.15 0.7,-2.7 0.85,-5.65 0.05,-0.85 0.05,-1.75 0,-0.9 -0.05,-1.8 -0.6,-10.25 -8,-17.65 -8.15,-8.1 -19.55,-8.1 -11.4,0 -19.45,8.1 m 1.75,1.8 0.05,-0.05 q 7.3,-7.35 17.65,-7.35 10.4,0 17.8,7.4 6.7,6.7 7.25,16 0.05,0.8 0.05,1.65 0,0.8 -0.05,1.6 v 0.05 q -0.15,3 -0.95,5.75 -20.3,7.55 -48.15,0 -0.8,-2.75 -1,-5.8 -0.05,-0.8 -0.05,-1.6 0,-0.85 0.05,-1.65 0.55,-9.3 7.35,-16 z" />
        <path
           style="fill:#ffffff;fill-opacity:0.30196078;stroke:none"
           inkscape:connector-curvature="0"
           id="path1090"
           d="m 822.25,156.4 -0.05,0.05 q -6.8,6.7 -7.35,16 -0.05,0.8 -0.05,1.65 0,0.8 0.05,1.6 0.2,3.05 1,5.8 27.85,7.55 48.15,0 0.8,-2.75 0.95,-5.75 v -0.05 q 0.05,-0.8 0.05,-1.6 0,-0.85 -0.05,-1.65 -0.55,-9.3 -7.25,-16 -7.4,-7.4 -17.8,-7.4 -10.35,0 -17.65,7.35 z" />
      </g>
    </g>
    <g
       id="g2172"
       transform="matrix(1.8596901,0,0,1.3544899,-326.94278,33.827202)"
       inkscape:export-xdpi="96"
       inkscape:export-ydpi="96">
      <g
         transform="scale(0.26458333)"
         id="use2170">
        <path
           style="fill:#f7acc4;stroke:none"
           inkscape:connector-curvature="0"
           id="path1094"
           d="m 855.1,299.95 q 6.1,6.1 6.3,14.7 v -1.5 q 0,-8.9 -6.3,-15.2 -6.3,-6.3 -15.2,-6.3 -8.9,0 -15.2,6.3 -6.3,6.3 -6.3,15.2 v 1.5 q 0.2,-8.6 6.3,-14.7 6.3,-6.3 15.2,-6.3 8.9,0 15.2,6.3 z" />
        <path
           style="fill:#f19cb7;stroke:none"
           inkscape:connector-curvature="0"
           id="path1096"
           d="m 861.4,343.8 v -29.15 q -0.2,-8.6 -6.3,-14.7 -6.3,-6.3 -15.2,-6.3 -8.9,0 -15.2,6.3 -6.1,6.1 -6.3,14.7 v 29.15 q 0.15,5.3 6.3,9.05 6.3,3.8 15.2,3.8 8.9,0 15.2,-3.8 6.15,-3.75 6.3,-9.05 z" />
      </g>
    </g>
    <g
       id="g2176"
       transform="matrix(1.8596901,0,0,1.8596901,-326.94278,-5.156919)"
       inkscape:export-xdpi="96"
       inkscape:export-ydpi="96">
      <g
         transform="scale(0.26458333)"
         id="use2174">
        <path
           style="fill:#ffffff;stroke:none"
           inkscape:connector-curvature="0"
           id="path1118"
           d="m 852.55,310.45 q 0.1,-0.65 0.1,-1.3 0,-3.1 -2.35,-5.45 -2.25,-2.25 -5.25,-2.25 -3.3,0 -5.6,2.25 -2.15,2.35 -2.15,5.45 0,0.65 0.15,1.3 0.3,2.25 2,3.95 2.3,2.3 5.6,2.3 3,0 5.25,-2.3 1.8,-1.7 2.25,-3.95 m -6.55,-6.5 q 2,0 3.5,1.5 1.55,1.55 1.55,3.6 0,2.1 -1.55,3.5 -1.5,1.55 -3.5,1.55 -0.25,0 -0.5,0 -1.9,-0.2 -3.25,-1.55 -1.45,-1.4 -1.45,-3.5 0,-2.05 1.45,-3.6 1.35,-1.3 3.25,-1.45 0.25,-0.05 0.5,-0.05 z" />
        <path
           style="fill:#a55b72;stroke:none"
           inkscape:connector-curvature="0"
           id="path1120"
           d="m 849.5,305.45 q -1.5,-1.5 -3.5,-1.5 -0.25,0 -0.5,0.05 -1.9,0.15 -3.25,1.45 -1.45,1.55 -1.45,3.6 0,2.1 1.45,3.5 1.35,1.35 3.25,1.55 0.25,0 0.5,0 2,0 3.5,-1.55 1.55,-1.4 1.55,-3.5 0,-2.05 -1.55,-3.6 m 2.55,17.55 q 0.2,-0.4 0,-0.85 -0.25,-0.4 -0.6,-0.5 h -0.05 q -0.4,-0.2 -0.75,0 -0.4,0.15 -0.55,0.55 -0.25,0.65 -0.7,1.25 -0.25,0.25 -0.6,0.5 -1.65,1.25 -3.95,1.25 -2.3,0 -3.95,-1.25 -0.25,-0.2 -0.45,-0.45 -0.5,-0.6 -0.75,-1.25 -0.15,-0.35 -0.45,-0.55 -0.45,-0.2 -0.9,-0.05 -0.4,0.05 -0.55,0.5 -0.25,0.3 -0.1,0.75 0.35,1.5 1.95,2.6 2.1,1.75 5.2,1.75 3.05,0 5.2,-1.75 1.4,-1.1 2,-2.5 z" />
      </g>
    </g>
    <g
       id="g2188"
       transform="matrix(1.8596901,0,0,1.8596901,-326.94278,-5.156919)"
       inkscape:export-xdpi="96"
       inkscape:export-ydpi="96">
      <g
         transform="scale(0.26458333)"
         id="use2186">
        <path
           style="fill:#ffffff;stroke:none"
           inkscape:connector-curvature="0"
           id="path1110"
           d="m 807.35,305.85 q 0.15,2.9 0.75,5.65 1.95,8.85 8.8,15.7 9.5,9.5 23,9.5 13.5,0 23.1,-9.5 6.8,-6.85 8.75,-15.7 0.55,-2.75 0.7,-5.65 0.05,-0.85 0.05,-1.75 0,-0.9 -0.05,-1.8 -0.6,-12.35 -9.45,-21.2 -9.6,-9.55 -23.1,-9.55 -13.5,0 -23,9.55 -8.95,8.85 -9.55,21.2 -0.05,0.9 -0.05,1.8 0,0.9 0.05,1.75 m 13.1,-21.2 q 8.05,-8.1 19.45,-8.1 11.4,0 19.55,8.1 7.4,7.4 8,17.65 0.05,0.9 0.05,1.8 0,0.9 -0.05,1.75 -0.15,2.95 -0.85,5.65 -1.8,6.8 -7.15,12.15 -8.15,8.05 -19.55,8.05 -11.4,0 -19.45,-8.05 -5.35,-5.35 -7.2,-12.15 -0.75,-2.7 -0.9,-5.65 -0.05,-0.85 -0.05,-1.75 0,-0.9 0.05,-1.8 0.6,-10.25 8.1,-17.65 z" />
        <path
           style="fill:#ffffff;fill-opacity:0.2;stroke:none"
           inkscape:connector-curvature="0"
           id="path1112"
           d="m 839.9,276.55 q -11.4,0 -19.45,8.1 -7.5,7.4 -8.1,17.65 -0.05,0.9 -0.05,1.8 0,0.9 0.05,1.75 0.15,2.95 0.9,5.65 1.85,6.8 7.2,12.15 8.05,8.05 19.45,8.05 11.4,0 19.55,-8.05 5.35,-5.35 7.15,-12.15 0.7,-2.7 0.85,-5.65 0.05,-0.85 0.05,-1.75 0,-0.9 -0.05,-1.8 -0.6,-10.25 -8,-17.65 -8.15,-8.1 -19.55,-8.1 m -17.7,9.9 0.05,-0.05 q 7.3,-7.35 17.65,-7.35 10.4,0 17.8,7.4 6.7,6.7 7.25,16 0.05,0.8 0.05,1.65 0,0.8 -0.05,1.6 v 0.05 q -0.15,3 -0.95,5.75 -20.3,7.55 -48.15,0 -0.8,-2.75 -1,-5.8 -0.05,-0.8 -0.05,-1.6 0,-0.85 0.05,-1.65 0.55,-9.3 7.35,-16 z" />
        <path
           style="fill:#ffffff;fill-opacity:0.30196078;stroke:none"
           inkscape:connector-curvature="0"
           id="path1114"
           d="m 822.25,286.4 -0.05,0.05 q -6.8,6.7 -7.35,16 -0.05,0.8 -0.05,1.65 0,0.8 0.05,1.6 0.2,3.05 1,5.8 27.85,7.55 48.15,0 0.8,-2.75 0.95,-5.75 v -0.05 q 0.05,-0.8 0.05,-1.6 0,-0.85 -0.05,-1.65 -0.55,-9.3 -7.25,-16 -7.4,-7.4 -17.8,-7.4 -10.35,0 -17.65,7.35 z" />
      </g>
    </g>
    <g
       id="g2436"
       transform="matrix(1.8596901,0,0,1.6514656,-326.94278,18.07289)"
       inkscape:export-xdpi="96"
       inkscape:export-ydpi="96">
      <g
         transform="scale(0.26458333)"
         id="use2434">
        <path
           style="fill:#ffde5b;stroke:none"
           inkscape:connector-curvature="0"
           id="path1142"
           d="m 855.1,429.95 q 6.1,6.1 6.3,14.7 v -1.5 q 0,-8.9 -6.3,-15.2 -6.3,-6.3 -15.2,-6.3 -8.9,0 -15.2,6.3 -6.3,6.3 -6.3,15.2 v 1.5 q 0.2,-8.6 6.3,-14.7 6.3,-6.3 15.2,-6.3 8.9,0 15.2,6.3 z" />
        <path
           style="fill:#ffcc00;stroke:none"
           inkscape:connector-curvature="0"
           id="path1144"
           d="m 861.4,444.65 q -0.2,-8.6 -6.3,-14.7 -6.3,-6.3 -15.2,-6.3 -8.9,0 -15.2,6.3 -6.1,6.1 -6.3,14.7 v 29.15 q 0.15,5.3 6.3,9.05 6.3,3.8 15.2,3.8 8.9,0 15.2,-3.8 6.15,-3.75 6.3,-9.05 z" />
      </g>
    </g>
    <g
       id="g2444"
       transform="matrix(1.8596901,0,0,1.8596901,-326.94278,-5.156919)"
       inkscape:export-xdpi="96"
       inkscape:export-ydpi="96">
      <g
         transform="scale(0.26458333)"
         id="use2442">
        <path
           style="fill:#ad8a00;stroke:none"
           inkscape:connector-curvature="0"
           id="path1128"
           d="m 839.9,462.35 q -0.1,-0.4 -0.45,-0.55 -0.4,-0.2 -0.85,-0.1 -0.4,0.1 -0.55,0.5 -0.2,0.35 -0.1,0.75 0.4,1.45 1.9,2.55 2.1,1.65 5.1,1.65 2.95,0 5.05,-1.65 1.35,-1.1 1.95,-2.45 0.15,-0.4 0,-0.8 -0.25,-0.4 -0.6,-0.5 -0.4,-0.2 -0.8,0 -0.4,0.15 -0.5,0.55 -0.4,0.9 -1.3,1.65 -1.6,1.2 -3.8,1.2 -2.3,0 -3.85,-1.2 -0.9,-0.7 -1.2,-1.6 m 9,-8.15 q -0.05,0.2 -0.05,0.4 0,2 1.4,3.4 1.5,1.5 3.6,1.5 2,0 3.45,-1.5 1.5,-1.4 1.5,-3.4 0,-0.2 0,-0.4 h -9.9 m -7.8,0.4 q 0,-0.2 0,-0.4 h -9.9 q -0.05,0.2 -0.05,0.4 0,2 1.4,3.4 1.5,1.5 3.6,1.5 2,0 3.45,-1.5 1.5,-1.4 1.5,-3.4 z" />
      </g>
    </g>
    <g
       id="g2456"
       transform="matrix(1.8596901,0,0,1.8596901,-326.94278,-5.156919)"
       inkscape:export-xdpi="96"
       inkscape:export-ydpi="96">
      <g
         transform="scale(0.26458333)"
         id="use2454">
        <path
           style="fill:#ffffff;stroke:none"
           inkscape:connector-curvature="0"
           id="path1156"
           d="m 872.5,444.1 q 0,-0.9 -0.05,-1.8 -0.6,-12.35 -9.45,-21.2 -9.6,-9.55 -23.1,-9.55 -13.5,0 -23,9.55 -8.95,8.85 -9.55,21.2 -0.05,0.9 -0.05,1.8 0,0.9 0.05,1.75 0.15,2.9 0.75,5.65 1.95,8.85 8.8,15.7 9.5,9.5 23,9.5 13.5,0 23.1,-9.5 6.8,-6.85 8.75,-15.7 0.55,-2.75 0.7,-5.65 0.05,-0.85 0.05,-1.75 m -5.05,-1.8 q 0.05,0.9 0.05,1.8 0,0.9 -0.05,1.75 -0.15,2.95 -0.85,5.65 -1.8,6.8 -7.15,12.15 -8.15,8.05 -19.55,8.05 -11.4,0 -19.45,-8.05 -5.35,-5.35 -7.2,-12.15 -0.75,-2.7 -0.9,-5.65 -0.05,-0.85 -0.05,-1.75 0,-0.9 0.05,-1.8 0.6,-10.25 8.1,-17.65 8.05,-8.1 19.45,-8.1 11.4,0 19.55,8.1 7.4,7.4 8,17.65 z" />
        <path
           style="fill:#ffffff;fill-opacity:0.2;stroke:none"
           inkscape:connector-curvature="0"
           id="path1158"
           d="m 867.5,444.1 q 0,-0.9 -0.05,-1.8 -0.6,-10.25 -8,-17.65 -8.15,-8.1 -19.55,-8.1 -11.4,0 -19.45,8.1 -7.5,7.4 -8.1,17.65 -0.05,0.9 -0.05,1.8 0,0.9 0.05,1.75 0.15,2.95 0.9,5.65 1.85,6.8 7.2,12.15 8.05,8.05 19.45,8.05 11.4,0 19.55,-8.05 5.35,-5.35 7.15,-12.15 0.7,-2.7 0.85,-5.65 0.05,-0.85 0.05,-1.75 m -9.8,-17.65 q 6.7,6.7 7.25,16 0.05,0.8 0.05,1.65 0,0.8 -0.05,1.6 v 0.05 q -0.15,3 -0.95,5.75 -20.3,7.55 -48.15,0 -0.8,-2.75 -1,-5.8 -0.05,-0.8 -0.05,-1.6 0,-0.85 0.05,-1.65 0.55,-9.3 7.35,-16 l 0.05,-0.05 q 7.3,-7.35 17.65,-7.35 10.4,0 17.8,7.4 z" />
        <path
           style="fill:#ffffff;fill-opacity:0.30196078;stroke:none"
           inkscape:connector-curvature="0"
           id="path1160"
           d="m 864.95,442.45 q -0.55,-9.3 -7.25,-16 -7.4,-7.4 -17.8,-7.4 -10.35,0 -17.65,7.35 l -0.05,0.05 q -6.8,6.7 -7.35,16 -0.05,0.8 -0.05,1.65 0,0.8 0.05,1.6 0.2,3.05 1,5.8 27.85,7.55 48.15,0 0.8,-2.75 0.95,-5.75 v -0.05 q 0.05,-0.8 0.05,-1.6 0,-0.85 -0.05,-1.65 z" />
      </g>
    </g>
    <g
       id="g2700"
       transform="matrix(1.8596901,0,0,1.4336834,-326.94278,55.894731)"
       inkscape:export-xdpi="96"
       inkscape:export-ydpi="96">
      <g
         transform="scale(0.26458333)"
         id="use2698">
        <path
           style="fill:#eee1c5;stroke:none"
           inkscape:connector-curvature="0"
           id="path1174"
           d="m 818.4,564.65 q 0.2,-8.6 6.3,-14.7 6.3,-6.3 15.2,-6.3 8.9,0 15.2,6.3 6.1,6.1 6.3,14.7 v -1.5 q 0,-8.9 -6.3,-15.2 -6.3,-6.3 -15.2,-6.3 -8.9,0 -15.2,6.3 -6.3,6.3 -6.3,15.2 z" />
        <path
           style="fill:#e0d1af;stroke:none"
           inkscape:connector-curvature="0"
           id="path1176"
           d="m 824.7,549.95 q -6.1,6.1 -6.3,14.7 v 39.15 q 0.15,5.3 6.3,9.05 6.3,3.8 15.2,3.8 8.9,0 15.2,-3.8 6.15,-3.75 6.3,-9.05 v -39.15 q -0.2,-8.6 -6.3,-14.7 -6.3,-6.3 -15.2,-6.3 -8.9,0 -15.2,6.3 z" />
      </g>
    </g>
    <g
       id="g2704"
       transform="matrix(1.8596901,0,0,1.8596901,-326.94278,-5.156919)"
       inkscape:export-xdpi="96"
       inkscape:export-ydpi="96">
      <g
         transform="scale(0.26458333)"
         id="use2702">
        <path
           style="fill:#af9f7a;stroke:none"
           inkscape:connector-curvature="0"
           id="path1164"
           d="m 849.95,572.3 q -0.4,0.9 -1.3,1.65 -1.6,1.2 -3.8,1.2 -2.3,0 -3.85,-1.2 -0.9,-0.7 -1.2,-1.6 -0.1,-0.4 -0.45,-0.55 -0.4,-0.2 -0.85,-0.1 -0.4,0.1 -0.55,0.5 -0.2,0.35 -0.1,0.75 0.4,1.45 1.9,2.55 2.1,1.65 5.1,1.65 2.95,0 5.05,-1.65 1.35,-1.1 1.95,-2.45 0.15,-0.4 0,-0.8 -0.25,-0.4 -0.6,-0.5 -0.4,-0.2 -0.8,0 -0.4,0.15 -0.5,0.55 M 835.6,559.7 q -1.8,0.1 -3.15,1.4 -1.4,1.5 -1.4,3.5 0,2 1.4,3.4 1.45,1.45 3.4,1.5 0.05,0 0.15,0 h 17.6 q 0.05,0 0.15,0 h 0.15 q 1.9,-0.05 3.3,-1.5 1.5,-1.4 1.5,-3.4 0,-2 -1.5,-3.5 -1.2,-1.2 -2.7,-1.4 -0.4,-0.05 -0.75,-0.05 -0.1,0 -0.15,0 v 0.05 H 836 v -0.05 q -0.1,0 -0.15,0 -0.15,0 -0.25,0.05 z" />
      </g>
    </g>
    <g
       id="g2716"
       transform="matrix(1.8596901,0,0,1.8596901,-326.94278,-5.156919)"
       inkscape:export-xdpi="96"
       inkscape:export-ydpi="96">
      <g
         transform="scale(0.26458333)"
         id="use2714">
        <path
           style="fill:#ffffff;stroke:none"
           inkscape:connector-curvature="0"
           id="path1188"
           d="m 839.9,531.55 q -13.5,0 -23,9.55 -8.95,8.85 -9.55,21.2 -0.05,0.9 -0.05,1.8 0,0.9 0.05,1.75 0.15,2.9 0.75,5.65 1.95,8.85 8.8,15.7 9.5,9.5 23,9.5 13.5,0 23.1,-9.5 6.8,-6.85 8.75,-15.7 0.55,-2.75 0.7,-5.65 0.05,-0.85 0.05,-1.75 0,-0.9 -0.05,-1.8 -0.6,-12.35 -9.45,-21.2 -9.6,-9.55 -23.1,-9.55 m -27.55,34.3 q -0.05,-0.85 -0.05,-1.75 0,-0.9 0.05,-1.8 0.6,-10.25 8.1,-17.65 8.05,-8.1 19.45,-8.1 11.4,0 19.55,8.1 7.4,7.4 8,17.65 0.05,0.9 0.05,1.8 0,0.9 -0.05,1.75 -0.15,2.95 -0.85,5.65 -1.8,6.8 -7.15,12.15 -8.15,8.05 -19.55,8.05 -11.4,0 -19.45,-8.05 -5.35,-5.35 -7.2,-12.15 -0.75,-2.7 -0.9,-5.65 z" />
        <path
           style="fill:#ffffff;fill-opacity:0.2;stroke:none"
           inkscape:connector-curvature="0"
           id="path1190"
           d="m 812.3,564.1 q 0,0.9 0.05,1.75 0.15,2.95 0.9,5.65 1.85,6.8 7.2,12.15 8.05,8.05 19.45,8.05 11.4,0 19.55,-8.05 5.35,-5.35 7.15,-12.15 0.7,-2.7 0.85,-5.65 0.05,-0.85 0.05,-1.75 0,-0.9 -0.05,-1.8 -0.6,-10.25 -8,-17.65 -8.15,-8.1 -19.55,-8.1 -11.4,0 -19.45,8.1 -7.5,7.4 -8.1,17.65 -0.05,0.9 -0.05,1.8 m 2.55,-1.65 q 0.55,-9.3 7.35,-16 l 0.05,-0.05 q 7.3,-7.35 17.65,-7.35 10.4,0 17.8,7.4 6.7,6.7 7.25,16 0.05,0.8 0.05,1.65 0,0.8 -0.05,1.6 v 0.05 q -0.15,3 -0.95,5.75 -20.3,7.55 -48.15,0 -0.8,-2.75 -1,-5.8 -0.05,-0.8 -0.05,-1.6 0,-0.85 0.05,-1.65 z" />
        <path
           style="fill:#ffffff;fill-opacity:0.30196078;stroke:none"
           inkscape:connector-curvature="0"
           id="path1192"
           d="m 822.2,546.45 q -6.8,6.7 -7.35,16 -0.05,0.8 -0.05,1.65 0,0.8 0.05,1.6 0.2,3.05 1,5.8 27.85,7.55 48.15,0 0.8,-2.75 0.95,-5.75 v -0.05 q 0.05,-0.8 0.05,-1.6 0,-0.85 -0.05,-1.65 -0.55,-9.3 -7.25,-16 -7.4,-7.4 -17.8,-7.4 -10.35,0 -17.65,7.35 z" />
      </g>
    </g>
  </g>
</svg>
